#!OML:ASF Y:\EmotionMaleHayes\Project 1\Capture day 1\Session 1\Male1.ASF
:FULLY-SPECIFIED
:DEGREES
220
root -1.87106 16.6008 0.908919 301.502 78.6121 302.872
lowerback 9.39175 3.7457 10.0274
upperback 2.89343 6.08335 2.09238
thorax -1.40981 3.11203 -4.00065
lowerneck -22.9436 1.37158 4.38917
upperneck 18.0237 1.49334 -4.56381
head 9.53866 0.472736 -2.09554
rclavicle 4.5149e-014 1.48343e-014
rhumerus -13.6286 17.2892 -82.8318
rradius 48.5788
rwrist -10.8287
rhand -11.6163 -32.0667
rfingers 7.12502
rthumb 14.4267 -61.5453
lclavicle 4.5149e-014 1.48343e-014
lhumerus -45.4256 -1.64197 83.5521
lradius 21.9044
lwrist -22.4893
lhand -7.24939 -24.9116
lfingers 7.12502
lthumb 18.631 4.21616
rfemur 18.5074 -4.69159 27.7242
rtibia 5.41691
rfoot -23.4252 11.3701
rtoes 6.64676
lfemur -24.0828 8.61156 -4.63558
ltibia 14.8492
lfoot -5.18003 7.38789
ltoes 0.988104
221
root -1.66646 16.5559 0.899884 301.724 78.1772 302.889
lowerback 9.22157 3.8106 10.3556
upperback 2.8632 6.17868 2.07966
thorax -1.2967 3.16484 -4.18401
lowerneck -23.0662 1.38372 4.42281
upperneck 17.7811 1.46667 -4.49836
head 9.4731 0.467302 -2.0796
rclavicle 1.97791e-014 -1.0138e-014
rhumerus -13.0279 17.443 -82.6149
rradius 48.9048
rwrist -11.0354
rhand -11.6419 -31.6172
rfingers 7.12502
rthumb 14.4021 -61.0976
lclavicle 1.97791e-014 -1.0138e-014
lhumerus -45.7125 -0.728518 82.734
lradius 21.7623
lwrist -22.5895
lhand -7.88142 -25.0727
lfingers 7.12502
lthumb 18.0229 4.11226
rfemur 18.8457 -3.85131 28.4296
rtibia 5.78971
rfoot -24.0871 10.7275
rtoes 6.51889
lfemur -23.9689 7.32217 -3.53222
ltibia 12.1991
lfoot -5.9981 8.58746
ltoes 0.53292
222
root -1.45915 16.5108 0.885589 302.29 77.9395 303.202
lowerback 8.9139 3.86626 10.4431
upperback 2.85622 6.21839 2.06308
thorax -1.11641 3.19317 -4.22305
lowerneck -23.1383 1.39476 4.37705
upperneck 17.506 1.45627 -4.38523
head 9.38723 0.470084 -2.03107
rclavicle 4.1633e-014 -1.91827e-014
rhumerus -12.4285 17.5842 -82.3619
rradius 49.1496
rwrist -10.9975
rhand -11.5417 -31.6432
rfingers 7.12502
rthumb 14.4986 -61.1166
lclavicle 4.1633e-014 -1.91827e-014
lhumerus -45.9894 0.258392 81.9941
lradius 21.6627
lwrist -22.6605
lhand -8.20572 -24.9989
lfingers 7.12502
lthumb 17.7109 4.21451
rfemur 19.1614 -3.28329 28.7755
rtibia 6.15903
rfoot -24.6507 10.205
rtoes 5.35419
lfemur -24.1277 6.2133 -2.81198
ltibia 10.3136
lfoot -6.56664 9.6151
ltoes 0.826764
223
root -1.25453 16.4678 0.874204 302.154 77.4317 302.935
lowerback 8.95498 3.9122 10.7406
upperback 2.75147 6.32272 2.17182
thorax -1.21379 3.23709 -4.28727
lowerneck -23.2601 1.40221 4.29966
upperneck 17.4797 1.47501 -4.33722
head 9.39916 0.477393 -1.9989
rclavicle 2.12203e-014 2.28602e-014
rhumerus -11.9991 17.7275 -82.135
rradius 49.2894
rwrist -10.7703
rhand -11.5014 -31.9899
rfingers 7.12502
rthumb 14.5374 -61.4605
lclavicle 2.12203e-014 2.28602e-014
lhumerus -46.5392 0.935489 81.5214
lradius 21.7651
lwrist -22.519
lhand -8.51415 -24.6481
lfingers 7.12502
lthumb 17.4141 4.59181
rfemur 19.6435 -2.85155 29.3693
rtibia 6.498
rfoot -25.2223 9.94083
rtoes 4.45442
lfemur -24.3137 5.50817 -1.79629
ltibia 9.105
lfoot -7.47713 10.294
ltoes 0.382847
224
root -1.04005 16.4255 0.859517 299.727 77.3303 300.487
lowerback 8.87246 3.75394 11.0954
upperback 2.73056 6.13925 2.22688
thorax -1.18541 3.14883 -4.40434
lowerneck -23.5524 1.4102 4.35378
upperneck 17.6123 1.48208 -4.43597
head 9.4983 0.469684 -2.04383
rclavicle 2.3146e-014 1.799e-014
rhumerus -11.5673 18.0034 -81.8861
rradius 49.4161
rwrist -10.6613
rhand -11.7234 -32.55
rfingers 7.12502
rthumb 14.3235 -62.0359
lclavicle 2.3146e-014 1.799e-014
lhumerus -46.8984 1.86171 80.8033
lradius 21.6268
lwrist -22.7525
lhand -8.86604 -24.7551
lfingers 7.12502
lthumb 17.0754 4.51449
rfemur 20.4366 -2.52149 29.9811
rtibia 6.59257
rfoot -25.7146 9.19334
rtoes 4.26517
lfemur -24.5651 4.80894 -1.21333
ltibia 8.25025
lfoot -8.08617 10.3576
ltoes 0.255781
